<?xml version="1.0" encoding="utf-8"?>
<!-- Generator: Adobe Illustrator 16.0.0, SVG Export Plug-In . SVG Version: 6.00 Build 0)  -->
<!DOCTYPE svg PUBLIC "-//W3C//DTD SVG 1.1//EN" "http://www.w3.org/Graphics/SVG/1.1/DTD/svg11.dtd">
<svg version="1.1" id="Camada_1" xmlns="http://www.w3.org/2000/svg" xmlns:xlink="http://www.w3.org/1999/xlink" x="0px" y="0px"
	 width="120px" height="50px" viewBox="65 0 120 50" enable-background="new 65 0 120 50" xml:space="preserve">
<g id="Grupo_78" transform="translate(-315.959 -1001.904)">
	<g id="Grupo_75">
		<path id="Caminho_249" fill="#004926" d="M448.913,1029.239c-0.036,0.305-0.07,0.584-0.105,0.864
			c-0.093,0.747-0.188,1.496-0.281,2.242c-0.104,0.835-0.209,1.67-0.313,2.504c-0.102,0.802-0.201,1.602-0.303,2.403
			c-0.256,2.002-1.506,3.452-3.455,3.992c-1.021,0.305-2.104,0.325-3.136,0.063c-0.525-0.139-1.007-0.365-1.34-0.818
			c-0.26-0.335-0.346-0.773-0.231-1.182c0.122-0.453,0.54-0.729,1.044-0.7c0.496,0.028,0.803,0.31,0.879,0.804
			c0.021,0.141,0.033,0.283,0.063,0.422c0.134,0.64,0.507,0.952,1.174,0.973c1.089,0.034,1.865-0.464,2.373-1.405
			c0.326-0.607,0.478-1.269,0.564-1.946c0.024-0.184,0.05-0.369,0.063-0.554c-0.004-0.07-0.018-0.139-0.039-0.204
			c-0.074,0.011-0.146,0.035-0.212,0.07c-0.177,0.139-0.335,0.302-0.515,0.437c-1.092,0.826-2.728,0.846-3.776,0.042
			c-0.604-0.467-1-1.155-1.103-1.913c-0.286-1.744,0.105-3.33,1.293-4.655c1.279-1.425,2.887-1.895,4.756-1.439
			c0.328,0.079,0.656,0.163,0.987,0.223c0.459,0.083,0.907-0.003,1.347-0.136C448.726,1029.3,448.804,1029.275,448.913,1029.239z
			 M446.534,1031.684c-0.026-0.236-0.037-0.452-0.076-0.664c-0.068-0.367-0.199-0.713-0.509-0.947
			c-0.511-0.39-1.068-0.367-1.626-0.123c-0.55,0.241-0.907,0.688-1.182,1.204c-0.515,0.961-0.688,1.999-0.643,3.077
			c0.008,0.516,0.128,1.023,0.352,1.488c0.519,1.02,1.762,1.201,2.553,0.372c0.299-0.332,0.52-0.727,0.648-1.155
			c0.16-0.519,0.265-1.053,0.309-1.594C446.419,1032.782,446.478,1032.224,446.534,1031.684L446.534,1031.684z"/>
		<path id="Caminho_250" fill="#004926" d="M438.728,1029.24c-0.038,0.308-0.072,0.593-0.106,0.878
			c-0.094,0.758-0.187,1.515-0.281,2.271c-0.095,0.768-0.19,1.534-0.284,2.301c-0.051,0.413-0.103,0.826-0.144,1.24
			c-0.009,0.107,0.002,0.215,0.03,0.318c0.096,0.373,0.412,0.553,0.792,0.456c0.08-0.02,0.157-0.049,0.255-0.08
			c-0.032,0.185-0.06,0.356-0.093,0.527c-0.009,0.027-0.027,0.052-0.049,0.068c-0.611,0.491-1.302,0.709-2.083,0.564
			c-0.421-0.077-0.703-0.345-0.877-0.73c-0.029-0.068-0.055-0.137-0.084-0.203c-0.083-0.189-0.173-0.214-0.339-0.085
			c-0.077,0.059-0.146,0.13-0.218,0.195c-0.73,0.697-1.749,1.004-2.742,0.826c-1.232-0.191-2.03-0.921-2.339-2.107
			c-0.447-1.725-0.096-3.323,0.975-4.743c0.724-0.983,1.811-1.638,3.02-1.814c0.694-0.105,1.405-0.058,2.08,0.141
			c0.283,0.078,0.569,0.144,0.859,0.194c0.463,0.064,0.935,0.017,1.375-0.141C438.548,1029.295,438.623,1029.273,438.728,1029.24z
			 M432.304,1033.779c-0.016,0.502,0.044,1.006,0.18,1.491c0.136,0.438,0.343,0.835,0.739,1.099c0.676,0.449,1.589,0.265,2.12-0.421
			c0.423-0.547,0.619-1.185,0.725-1.852c0.089-0.556,0.144-1.115,0.209-1.675c0.071-0.455,0.072-0.919,0.002-1.375
			c-0.073-0.378-0.202-0.73-0.518-0.976c-0.458-0.355-0.973-0.358-1.492-0.177c-0.619,0.217-1.014,0.687-1.315,1.241
			C432.529,1031.951,432.306,1032.858,432.304,1033.779L432.304,1033.779z"/>
		<path id="Caminho_251" fill="#004926" d="M492.728,1029.239c-0.037,0.309-0.07,0.593-0.105,0.879
			c-0.094,0.758-0.188,1.515-0.281,2.271c-0.095,0.768-0.189,1.534-0.284,2.302c-0.05,0.412-0.103,0.825-0.145,1.238
			c-0.008,0.108,0.003,0.216,0.03,0.319c0.096,0.373,0.411,0.554,0.792,0.457c0.08-0.02,0.157-0.049,0.256-0.08
			c-0.031,0.185-0.06,0.355-0.093,0.527c-0.009,0.027-0.025,0.051-0.049,0.068c-0.611,0.491-1.303,0.709-2.083,0.565
			c-0.421-0.076-0.703-0.345-0.877-0.73c-0.032-0.072-0.059-0.146-0.091-0.217c-0.078-0.172-0.167-0.196-0.321-0.081
			c-0.082,0.062-0.154,0.136-0.23,0.204c-0.729,0.698-1.748,1.006-2.741,0.828c-1.231-0.192-2.03-0.922-2.339-2.108
			c-0.447-1.724-0.097-3.322,0.974-4.742c0.724-0.984,1.811-1.638,3.02-1.815c0.695-0.102,1.405-0.055,2.081,0.139
			c0.373,0.101,0.752,0.175,1.135,0.22c0.395,0.043,0.779-0.058,1.154-0.179L492.728,1029.239z M490.349,1031.674
			c-0.027-0.241-0.038-0.453-0.076-0.659c-0.068-0.362-0.2-0.701-0.501-0.938c-0.461-0.362-0.979-0.368-1.504-0.184
			c-0.619,0.218-1.015,0.687-1.314,1.243c-0.481,0.892-0.655,1.857-0.646,2.86c0.005,0.591,0.083,1.171,0.352,1.708
			c0.516,1.033,1.765,1.219,2.56,0.384c0.3-0.332,0.52-0.728,0.647-1.155c0.16-0.52,0.264-1.055,0.308-1.596
			C490.233,1032.774,490.292,1032.209,490.349,1031.674z"/>
		<path id="Caminho_252" fill="#004926" d="M478.777,1032.823c-0.095,1.786-0.79,3.288-2.328,4.289
			c-1.424,0.927-2.947,1.009-4.456,0.186c-0.954-0.521-1.509-1.381-1.649-2.443c-0.284-2.132,0.463-3.865,2.227-5.105
			c1.367-0.962,3.322-0.965,4.648-0.071c0.877,0.591,1.349,1.436,1.501,2.469C478.751,1032.363,478.758,1032.584,478.777,1032.823z
			 M472.562,1033.783c0.021,0.234,0.043,0.649,0.101,1.062c0.064,0.58,0.262,1.139,0.576,1.631c0.59,0.871,1.711,0.917,2.364,0.092
			c0.301-0.399,0.511-0.86,0.616-1.35c0.256-1.044,0.304-2.129,0.14-3.192c-0.089-0.593-0.25-1.165-0.601-1.669
			c-0.546-0.789-1.563-0.878-2.231-0.189c-0.244,0.264-0.43,0.574-0.549,0.913C472.665,1031.892,472.582,1032.74,472.562,1033.783z"
			/>
		<path id="Caminho_253" fill="#004926" d="M483.088,1025.361c-0.027,0.236-0.051,0.448-0.077,0.66
			c-0.125,0.98-0.251,1.96-0.377,2.94c-0.123,0.96-0.248,1.92-0.372,2.88c-0.123,0.962-0.242,1.923-0.364,2.884
			c-0.043,0.339-0.097,0.678-0.131,1.019c-0.021,0.159-0.018,0.321,0.01,0.479c0.084,0.396,0.407,0.581,0.799,0.481
			c0.075-0.019,0.148-0.046,0.244-0.076c-0.046,0.295-0.03,0.578-0.344,0.762c-0.564,0.33-1.154,0.505-1.808,0.418
			c-0.625-0.082-1.056-0.579-1.057-1.264c0.009-0.366,0.04-0.731,0.095-1.095c0.097-0.801,0.206-1.601,0.309-2.4
			c0.104-0.81,0.209-1.621,0.313-2.432c0.103-0.801,0.208-1.6,0.307-2.4c0.035-0.286,0.063-0.575,0.082-0.863
			c0.005-0.122-0.006-0.244-0.028-0.364c-0.064-0.38-0.31-0.6-0.712-0.646c-0.121-0.014-0.242-0.023-0.383-0.037
			c0.024-0.191,0.049-0.378,0.074-0.577C480.817,1025.754,481.968,1025.63,483.088,1025.361z"/>
		<path id="Caminho_254" fill="#004926" d="M468.968,1035.83c0.069,0.091,0.132,0.172,0.193,0.253
			c0.164,0.218,0.167,0.221-0.03,0.417c-0.854,0.884-2.04,1.367-3.268,1.333c-1.564-0.026-2.846-0.925-3.343-2.335
			c-0.343-0.975-0.287-1.956,0.007-2.93c0.348-1.15,0.98-2.108,1.986-2.791c0.933-0.631,1.97-0.839,3.081-0.71
			c0.545,0.049,1.064,0.252,1.498,0.585c0.65,0.519,0.92,1.398,0.653,2.135c-0.172,0.541-0.743,0.847-1.289,0.692
			c-0.39-0.097-0.619-0.436-0.585-0.869c0.015-0.186,0.038-0.371,0.063-0.555c0.085-0.661-0.25-1.207-0.835-1.326
			c-0.525-0.121-1.076,0-1.502,0.331c-0.494,0.373-0.771,0.896-0.938,1.473c-0.328,1.06-0.33,2.194-0.007,3.255
			c0.252,0.805,0.73,1.437,1.58,1.656c0.979,0.253,1.896,0.098,2.686-0.582C468.934,1035.851,468.95,1035.84,468.968,1035.83z"/>
		<path id="Caminho_255" fill="#004926" d="M455.645,1031.449c-0.013-0.096-0.022-0.183-0.038-0.269
			c-0.092-0.491-0.448-0.743-0.946-0.68c-0.54,0.067-0.93,0.371-1.251,0.778c-0.476,0.627-0.783,1.365-0.893,2.145
			c-0.112,0.69-0.184,1.387-0.269,2.081c-0.091,0.732-0.178,1.466-0.267,2.208h-2.067c0.025-0.223,0.048-0.443,0.075-0.664
			c0.104-0.854,0.21-1.709,0.316-2.563c0.113-0.913,0.231-1.824,0.338-2.738c0.048-0.299,0.063-0.602,0.046-0.904
			c-0.058-0.526-0.418-0.735-0.927-0.587c-0.057,0.017-0.111,0.036-0.189,0.063c0.024-0.185,0.043-0.355,0.069-0.525
			c0.005-0.028,0.038-0.057,0.064-0.076c0.502-0.379,1.054-0.618,1.694-0.612c0.802,0.008,1.389,0.579,1.436,1.395
			c0.008,0.137,0.013,0.274,0.028,0.41c0.013,0.123,0.076,0.149,0.161,0.062c0.14-0.145,0.269-0.3,0.396-0.454
			c0.385-0.469,0.797-0.907,1.341-1.194c0.469-0.269,1.019-0.357,1.548-0.249c0.821,0.18,1.083,1.019,0.52,1.647
			C456.499,1031.056,456.093,1031.305,455.645,1031.449z"/>
		<path id="Caminho_256" fill="#004926" d="M457.847,1030.317c0.021-0.176,0.036-0.336,0.063-0.493
			c0.013-0.047,0.042-0.086,0.081-0.113c0.48-0.398,1.086-0.611,1.71-0.602c0.938,0.027,1.514,0.69,1.393,1.629
			c-0.21,1.639-0.456,3.272-0.684,4.909c-0.03,0.173-0.038,0.349-0.021,0.524c0.063,0.437,0.411,0.645,0.843,0.526
			c0.068-0.019,0.137-0.043,0.224-0.07c-0.029,0.183-0.056,0.351-0.085,0.517c-0.01,0.028-0.026,0.053-0.049,0.069
			c-0.604,0.49-1.282,0.734-2.062,0.563c-0.559-0.123-0.958-0.611-0.971-1.183c0.004-0.387,0.036-0.771,0.096-1.152
			c0.124-0.94,0.265-1.878,0.398-2.817c0.063-0.444,0.139-0.889,0.186-1.335c0.023-0.204,0.012-0.409-0.034-0.609
			c-0.094-0.38-0.421-0.54-0.828-0.441C458.026,1030.258,457.948,1030.285,457.847,1030.317z"/>
		<path id="Caminho_257" fill="#004926" d="M462.715,1024.245c0.664,0.029,1.101,0.77,0.776,1.333
			c-0.157,0.263-0.38,0.479-0.646,0.631c-0.805,0.486-1.613,0.965-2.422,1.443c-0.139,0.101-0.319,0.119-0.475,0.047
			c-0.264-0.133-0.312-0.424-0.1-0.683c0.226-0.276,0.464-0.544,0.697-0.814c0.352-0.408,0.694-0.824,1.06-1.221
			c0.192-0.208,0.405-0.396,0.637-0.559C462.375,1024.329,462.555,1024.303,462.715,1024.245z"/>
	</g>
	<g id="Grupo_76">
		<path id="Caminho_258" fill="#004926" d="M444.973,1017.515h-0.37v-0.632h2.439c0.268,0,0.387,0.12,0.387,0.388v0.614h-0.677
			v-0.245c0.007-0.063-0.038-0.118-0.102-0.125c-0.008-0.001-0.016-0.001-0.023,0h-0.91v1.058h1.309v0.631h-1.308v0.962
			c-0.007,0.062,0.038,0.117,0.102,0.124c0.007,0,0.015,0,0.023,0h0.932c0.063,0.006,0.119-0.039,0.126-0.101
			c0.001-0.008,0.001-0.017,0-0.023v-0.245h0.677v0.614c0,0.272-0.119,0.387-0.387,0.387h-1.831c-0.272,0-0.387-0.113-0.387-0.387
			V1017.515z"/>
		<path id="Caminho_259" fill="#004926" d="M449.893,1019.841c0,0,0.415,0.478,0.977,0.478c0.308,0,0.581-0.165,0.581-0.478
			c0-0.688-1.899-0.631-1.899-1.889c0-0.654,0.568-1.138,1.348-1.138c0.472,0,1.199,0.223,1.199,0.796v0.376h-0.671v-0.182
			c0-0.188-0.267-0.313-0.534-0.313c-0.341,0-0.592,0.177-0.592,0.433c0,0.688,1.898,0.552,1.898,1.877
			c0,0.643-0.494,1.188-1.342,1.188c-0.53-0.001-1.035-0.229-1.387-0.626L449.893,1019.841z"/>
		<path id="Caminho_260" fill="#004926" d="M456.222,1016.816c0.518,0,1.53,0.215,1.53,0.904v0.449h-0.678v-0.228
			c0-0.295-0.483-0.432-0.836-0.432c-0.722,0-1.291,0.518-1.291,1.359c0,0.79,0.581,1.427,1.314,1.427
			c0.462-0.007,0.903-0.199,1.223-0.535l0.393,0.535c-0.424,0.445-1.012,0.696-1.627,0.694c-1.233,0-2.076-0.928-2.076-2.122
			c-0.027-1.106,0.85-2.026,1.957-2.053C456.16,1016.815,456.191,1016.815,456.222,1016.816z"/>
		<path id="Caminho_261" fill="#004926" d="M460.192,1017.515h-0.37v-0.632h1.809c0.738,0,1.256,0.455,1.256,1.217
			c0,0.729-0.5,1.03-0.67,1.064v0.011c0.086,0.046,0.155,0.117,0.199,0.205l0.392,0.778c0.063,0.119,0.158,0.131,0.284,0.131h0.074
			v0.631h-0.393c-0.302,0-0.432-0.046-0.563-0.302l-0.518-1.018c-0.085-0.159-0.17-0.188-0.381-0.188h-0.375v1.507h-0.744V1017.515
			L460.192,1017.515z M461.529,1018.778c0.375,0,0.597-0.233,0.597-0.638c0-0.397-0.222-0.625-0.585-0.625h-0.604v1.263H461.529
			L461.529,1018.778z"/>
		<path id="Caminho_262" fill="#004926" d="M465.032,1020.29h0.403v-2.775h-0.403v-0.632h1.513v0.632h-0.404v2.775h0.404v0.631
			h-1.513V1020.29z"/>
		<path id="Caminho_263" fill="#004926" d="M469.839,1017.515h-0.62c-0.063-0.007-0.119,0.038-0.125,0.101c0,0.008,0,0.017,0,0.023
			v0.245h-0.653v-0.637c0-0.267,0.091-0.364,0.363-0.364h2.814c0.272,0,0.363,0.098,0.363,0.364v0.637h-0.653v-0.245
			c0.007-0.062-0.039-0.117-0.102-0.124c-0.008-0.001-0.017-0.001-0.023,0h-0.62v3.406h-0.746v-3.406H469.839z"/>
		<path id="Caminho_264" fill="#004926" d="M475.811,1016.816c1.126-0.026,2.061,0.865,2.087,1.991
			c0.001,0.022,0.001,0.045,0.001,0.066c0,1.189-0.898,2.116-2.088,2.116c-1.188,0-2.088-0.927-2.088-2.116
			c-0.01-1.125,0.895-2.048,2.021-2.058C475.766,1016.815,475.788,1016.815,475.811,1016.816z M475.811,1020.295
			c0.728,0,1.313-0.613,1.313-1.422c0.027-0.725-0.538-1.335-1.263-1.363c-0.727-0.027-1.337,0.538-1.364,1.264
			c-0.002,0.034-0.002,0.066,0,0.101C474.496,1019.682,475.083,1020.295,475.811,1020.295L475.811,1020.295z M475.952,1015.843
			h0.694l-0.598,0.773h-0.528L475.952,1015.843z"/>
		<path id="Caminho_265" fill="#004926" d="M480.224,1017.515h-0.369v-0.632h1.808c0.74,0,1.257,0.455,1.257,1.217
			c0,0.729-0.501,1.03-0.671,1.064v0.011c0.086,0.046,0.156,0.117,0.198,0.205l0.394,0.778c0.063,0.119,0.158,0.131,0.284,0.131
			h0.074v0.631h-0.393c-0.302,0-0.433-0.046-0.563-0.302l-0.518-1.018c-0.085-0.159-0.17-0.188-0.381-0.188h-0.376v1.507h-0.744
			V1017.515L480.224,1017.515z M481.561,1018.778c0.375,0,0.597-0.233,0.597-0.638c0-0.397-0.222-0.625-0.585-0.625h-0.603v1.263
			H481.561L481.561,1018.778z"/>
		<path id="Caminho_266" fill="#004926" d="M485.064,1020.29h0.403v-2.775h-0.403v-0.632h1.513v0.632h-0.403v2.775h0.403v0.631
			h-1.513V1020.29z"/>
		<path id="Caminho_267" fill="#004926" d="M490.644,1016.816c1.127-0.026,2.061,0.865,2.086,1.991
			c0.001,0.021,0.001,0.044,0.001,0.066c0,1.189-0.897,2.115-2.087,2.115c-1.188,0-2.087-0.927-2.087-2.115
			c-0.011-1.126,0.894-2.048,2.021-2.058C490.599,1016.815,490.621,1016.815,490.644,1016.816z M490.644,1020.295
			c0.728,0,1.313-0.613,1.313-1.422c0.027-0.725-0.538-1.335-1.264-1.363c-0.726-0.027-1.336,0.538-1.363,1.264
			c-0.001,0.034-0.001,0.066,0,0.101C489.33,1019.682,489.916,1020.295,490.644,1020.295L490.644,1020.295z"/>
	</g>
	<g id="Grupo_77">
		<path id="Caminho_268" fill="#1F492A" d="M425.027,1026.64c-0.144-9.968-8.342-17.932-18.31-17.788
			c-9.756,0.141-17.636,8.01-17.788,17.767c-0.001,0.097-0.002,0.193-0.002,0.289c0,0.226,0.004,0.448,0.012,0.671
			c0.042,1.19,0.204,2.374,0.48,3.532c0.102,0.429,0.22,0.854,0.353,1.27c0.681,2.143,1.759,4.139,3.175,5.885
			c1.603,1.979,3.606,3.599,5.877,4.751c1.992,1.011,4.156,1.641,6.379,1.855c0.584,0.058,1.175,0.086,1.774,0.087
			c0.591,0,1.174-0.028,1.75-0.084c7.178-0.701,13.25-5.604,15.448-12.473c0.134-0.417,0.251-0.841,0.355-1.271
			c0.278-1.158,0.439-2.341,0.483-3.532c0.01-0.229,0.014-0.461,0.014-0.691C425.029,1026.819,425.028,1026.73,425.027,1026.64z"/>
		<path id="Caminho_269" fill="#72B8E1" d="M423.441,1024.732h-2.824c-1.203-7.532-8.283-12.664-15.816-11.462
			c-5.896,0.941-10.521,5.565-11.462,11.462h-2.823c1.202-9.092,9.548-15.487,18.64-14.284
			C416.6,1011.432,422.457,1017.288,423.441,1024.732L423.441,1024.732z"/>
		<path id="Caminho_270" fill="#84C0E6" d="M420.618,1024.732h-3.168c-1.203-5.782-6.866-9.496-12.648-8.292
			c-4.169,0.866-7.426,4.124-8.293,8.292h-3.168c1.203-7.532,8.284-12.664,15.816-11.462
			C415.052,1014.211,419.676,1018.835,420.618,1024.732z"/>
		<path id="Caminho_271" fill="#93C9E9" d="M417.449,1024.732h-2.875c-1.204-4.194-5.579-6.62-9.773-5.417
			c-2.62,0.751-4.666,2.798-5.417,5.417h-2.876c1.203-5.782,6.865-9.496,12.648-8.292
			C413.324,1017.306,416.582,1020.564,417.449,1024.732z"/>
		<path id="Caminho_272" fill="#EEB400" d="M414.574,1024.732h-15.19c1.202-4.194,5.578-6.62,9.771-5.417
			C411.775,1020.067,413.823,1022.114,414.574,1024.732z"/>
		<path id="Caminho_273" fill="#1F492A" d="M425.027,1026.64c-0.144-9.968-8.342-17.932-18.31-17.788
			c-9.756,0.141-17.636,8.01-17.788,17.767c-0.001,0.097-0.002,0.193-0.002,0.289c0,0.226,0.004,0.448,0.012,0.671
			c0.042,1.19,0.204,2.374,0.48,3.532c0.102,0.429,0.22,0.854,0.353,1.27c0.681,2.143,1.759,4.139,3.175,5.885
			c1.603,1.979,3.606,3.599,5.877,4.751c1.992,1.011,4.156,1.641,6.379,1.855c0.584,0.058,1.175,0.086,1.774,0.087
			c0.591,0,1.174-0.028,1.75-0.084c7.178-0.701,13.25-5.604,15.448-12.473c0.134-0.417,0.251-0.841,0.355-1.271
			c0.278-1.158,0.439-2.341,0.483-3.532c0.01-0.229,0.014-0.461,0.014-0.691C425.029,1026.819,425.028,1026.73,425.027,1026.64z
			 M423.576,1027.37c-0.029,1.099-0.167,2.191-0.413,3.263c-0.09,0.397-0.196,0.789-0.316,1.177
			c-0.615,1.986-1.598,3.84-2.897,5.465c-1.543,1.931-3.496,3.492-5.719,4.573c-1.767,0.86-3.672,1.396-5.627,1.585
			c-0.536,0.054-1.077,0.08-1.626,0.08c-3.399,0.005-6.718-1.038-9.503-2.987c-1.918-1.341-3.533-3.07-4.739-5.076
			c-0.691-1.149-1.24-2.379-1.633-3.662c-0.12-0.385-0.224-0.776-0.315-1.175c-0.243-1.071-0.38-2.165-0.409-3.262
			c-0.003-0.148-0.006-0.296-0.006-0.443s0.003-0.295,0.006-0.44c0.016-0.581,0.061-1.159,0.137-1.735
			c1.193-9.092,9.531-15.495,18.623-14.303c8.111,1.065,14.238,7.88,14.438,16.058c0.003,0.14,0.005,0.28,0.005,0.421
			C423.583,1027.063,423.58,1027.216,423.576,1027.37L423.576,1027.37L423.576,1027.37z"/>
		<path id="Caminho_274" fill="#24140F" d="M423.583,1026.907c0,0.154-0.002,0.309-0.007,0.463l-2.788-0.442l-3.128-0.498
			l-2.837-0.45l-7.844-1.248l7.783,0.822l2.858,0.304l3.151,0.332l2.807,0.297C423.581,1026.627,423.583,1026.767,423.583,1026.907z
			"/>
		<path id="Caminho_275" fill="#24140F" d="M423.163,1030.633c-0.09,0.397-0.196,0.789-0.316,1.177l-2.575-1.149l-2.887-1.287
			l-2.615-1.167l-7.792-3.474l7.869,2.869l2.693,0.981l2.973,1.084L423.163,1030.633z"/>
		<path id="Caminho_276" fill="#24140F" d="M421.209,1035.468c-0.38,0.629-0.8,1.232-1.259,1.807l-2.021-1.954l-2.26-2.185
			l-2.038-1.971l-6.654-6.434l7.199,5.432l2.271,1.713l2.515,1.898L421.209,1035.468z"/>
		<path id="Caminho_277" fill="#24140F" d="M416.462,1040.538c-0.708,0.495-1.454,0.933-2.231,1.31l-1.092-2.578l-1.22-2.878
			l-1.096-2.585l-3.845-9.075l4.981,8.305l1.45,2.414l1.611,2.686L416.462,1040.538z"/>
		<path id="Caminho_278" fill="#24140F" d="M408.604,1043.433c-0.536,0.053-1.077,0.079-1.626,0.079c-0.549,0-1.1-0.027-1.647-0.082
			l0.245-2.783l0.275-3.105l0.245-2.784l0.882-10.025l0.872,10.027l0.242,2.783l0.27,3.106L408.604,1043.433z"/>
		<path id="Caminho_279" fill="#24140F" d="M406.978,1024.732l-4.006,8.983l-1.144,2.565l-1.272,2.855l-1.141,2.558
			c-0.672-0.345-1.321-0.735-1.939-1.169l1.445-2.4l1.614-2.684l1.451-2.412L406.978,1024.732z"/>
		<path id="Caminho_280" fill="#24140F" d="M406.978,1024.732l-6.66,6.425l-2.041,1.968l-2.263,2.182l-2.022,1.951
			c-0.458-0.574-0.877-1.178-1.255-1.807l2.249-1.692l2.517-1.894l2.273-1.711L406.978,1024.732z"/>
		<path id="Caminho_281" fill="#24140F" d="M406.978,1024.732l-7.793,3.465l-2.617,1.162l-2.889,1.285l-2.576,1.145
			c-0.119-0.386-0.224-0.777-0.315-1.175l2.652-0.964l2.975-1.079l2.693-0.98L406.978,1024.732z"/>
		<path id="Caminho_282" fill="#749E36" d="M406.978,1024.732l-7.781,0.814l-2.858,0.298l-3.152,0.329l-2.808,0.294
			c0.016-0.58,0.062-1.159,0.136-1.734L406.978,1024.732L406.978,1024.732z"/>
		<path id="Caminho_283" fill="#749E36" d="M406.978,1024.732l-7.87,2.858l-2.693,0.98l-2.975,1.079l-2.652,0.964
			c-0.244-1.072-0.381-2.166-0.409-3.264l2.789-0.438l3.128-0.495l2.838-0.446L406.978,1024.732z"/>
		<path id="Caminho_284" fill="#749E36" d="M406.978,1024.732l-7.204,5.422l-2.272,1.711l-2.517,1.894l-2.249,1.692
			c-0.691-1.15-1.24-2.38-1.633-3.662l2.576-1.145l2.888-1.285l2.618-1.162L406.978,1024.732z"/>
		<path id="Caminho_285" fill="#749E36" d="M406.978,1024.732l-4.992,8.298l-1.451,2.411l-1.614,2.684l-1.445,2.401
			c-1.312-0.917-2.485-2.018-3.483-3.269l2.022-1.951l2.263-2.182l2.041-1.968L406.978,1024.732z"/>
		<path id="Caminho_286" fill="#749E36" d="M406.978,1024.732l-0.882,10.025l-0.245,2.784l-0.275,3.105l-0.245,2.783
			c-2.064-0.201-4.071-0.79-5.916-1.736l1.141-2.558l1.272-2.855l1.144-2.565L406.978,1024.732z"/>
		<path id="Caminho_287" fill="#749E36" d="M414.231,1041.848c-1.767,0.86-3.672,1.396-5.627,1.585l-0.242-2.784l-0.27-3.105
			l-0.243-2.784l-0.871-10.026l3.845,9.075l1.096,2.585l1.219,2.877L414.231,1041.848z"/>
		<path id="Caminho_288" fill="#749E36" d="M419.95,1037.274c-1,1.249-2.175,2.349-3.488,3.265l-1.442-2.404l-1.61-2.686
			l-1.45-2.412l-4.982-8.305l6.654,6.434l2.038,1.97l2.26,2.186L419.95,1037.274z"/>
		<path id="Caminho_289" fill="#749E36" d="M422.847,1031.809c-0.396,1.282-0.946,2.511-1.639,3.659l-2.245-1.693l-2.515-1.898
			l-2.271-1.713l-7.199-5.432l7.792,3.475l2.615,1.166l2.887,1.288L422.847,1031.809z"/>
		<path id="Caminho_290" fill="#749E36" d="M423.576,1027.369c-0.029,1.1-0.167,2.192-0.413,3.263l-2.65-0.966l-2.974-1.084
			l-2.693-0.981l-7.868-2.869l7.844,1.247l2.837,0.452l3.128,0.497L423.576,1027.369z"/>
		<path id="Caminho_291" fill="#749E36" d="M423.577,1026.487l-2.807-0.297l-3.151-0.332l-2.858-0.304l-7.783-0.821h16.463
			C423.518,1025.315,423.563,1025.9,423.577,1026.487z"/>
		<path id="Caminho_292" fill="#24140F" d="M406.978,1024.732l-7.843,1.238l-2.838,0.446l-3.128,0.495l-2.789,0.438
			c-0.003-0.147-0.006-0.295-0.006-0.442c0-0.146,0.002-0.295,0.006-0.44l2.808-0.294l3.151-0.329l2.859-0.299L406.978,1024.732z"/>
	</g>
</g>
</svg>
