<?xml version="1.0" encoding="utf-8"?>
<!-- Generator: Adobe Illustrator 16.0.0, SVG Export Plug-In . SVG Version: 6.00 Build 0)  -->
<!DOCTYPE svg PUBLIC "-//W3C//DTD SVG 1.1//EN" "http://www.w3.org/Graphics/SVG/1.1/DTD/svg11.dtd">
<svg version="1.1" id="Camada_1" xmlns="http://www.w3.org/2000/svg" xmlns:xlink="http://www.w3.org/1999/xlink" x="0px" y="0px"
	 width="120px" height="50px" viewBox="65 0 120 50" enable-background="new 65 0 120 50" xml:space="preserve">
<g id="Grupo_82" transform="translate(-315.959 -1367.48)">
	<g id="Grupo_79">
		<path id="Caminho_293" fill="#531911" d="M431.427,1400.712c0.071-3.047,3.001-6.025,6.118-4.716
			c0.746,0.204,0.538-0.923,0.663-1.368c0.159-0.855-0.003-1.804-1.088-1.693l0.093-0.573c1.141,0.021,2.28-0.106,3.389-0.378
			c-0.321,2.757-0.675,5.496-0.999,8.252c0.021,0.958-0.998,3.467,0.798,2.979c-0.016,1.008-1.342,1.269-2.174,1.153
			c-0.813,0.018-0.834-1.162-1.265-1.063C434.803,1405.708,430.999,1403.889,431.427,1400.712z M437.759,1398.232
			c0.055-1.367-1.071-2.188-2.099-1.725c-2.088,1.017-2.756,5.097-0.842,6.535C437.503,1403.938,437.608,1399.978,437.759,1398.232
			L437.759,1398.232L437.759,1398.232z"/>
		<path id="Caminho_294" fill="#531911" d="M449.604,1403.172c-0.023,1.045-1.352,1.291-2.206,1.164
			c-0.892,0.045-0.823-1.677-1.526-0.812c-6.364,4.067-7.007-7.19-1.088-7.807c1.542-0.319,3.027,0.78,4.535,0.122
			C449.525,1397.01,447.331,1404.287,449.604,1403.172z M442.938,1400.404c-0.277,1.778,1.49,3.889,3.029,2.107
			c0.846-1.459,1.544-4.449,0.407-5.851C444.172,1395.374,442.832,1398.672,442.938,1400.404L442.938,1400.404z"/>
		<path id="Caminho_295" fill="#531911" d="M492.067,1395.708c0.198,1.172-1.987,8.466,0.281,7.351
			c-0.022,1.045-1.355,1.293-2.212,1.162c-0.903,0.028-0.813-1.668-1.514-0.815c-6.361,4.085-7.024-7.169-1.104-7.799
			C489.064,1395.267,490.561,1396.416,492.067,1395.708z M485.683,1400.25c-0.287,1.802,1.474,3.938,3.032,2.145
			c0.839-1.457,1.543-4.455,0.401-5.851C486.934,1395.261,485.581,1398.547,485.683,1400.25L485.683,1400.25z"/>
		<path id="Caminho_296" fill="#531911" d="M467.045,1402.33l0.366,0.477c-5.061,4.889-10.047-2.702-4.82-6.488
			c2.387-2.105,7.504,0.47,4.361,3.276c-1.06,0.706-2.344,0.849-3.565,1.091C461.406,1401.586,465.1,1404.506,467.045,1402.33z
			 M465.985,1397.804c0.195-1.906-2.236-1.989-2.937-0.532c-0.928,1.846-0.895,3.65,1.647,2.526
			C465.517,1399.491,466.041,1398.68,465.985,1397.804L465.985,1397.804z"/>
		<path id="Caminho_297" fill="#531911" d="M454.343,1396.556c-0.09-0.912,1.969-0.854,2.684-2.501
			c1.206-1.155,0.934,0.599,0.815,1.356c0.236,0.729,1.524,0.236,2.144,0.375c-0.031,0.296-0.061,0.57-0.091,0.855
			c-0.7,0.104-2.077-0.512-2.246,0.495c0.154,1.499-2.051,7.77,1.25,5.946c0.657,1.182-2.108,1.486-2.855,1.062
			C453.117,1403.132,457.597,1395.802,454.343,1396.556z"/>
		<path id="Caminho_298" fill="#531911" d="M468.832,1404.204c-0.203-1.231,2.029-8.438-0.355-7.362
			c0.094-1.529,3.368-1.944,3.34,0.685c2.548-3.708,6.343-1.269,2.712,0.436c-0.022-0.574-0.363-1.05-0.986-0.949
			c-2.837,0.935-2.109,4.832-2.647,7.186L468.832,1404.204z"/>
		<path id="Caminho_299" fill="#531911" d="M478.798,1404.18l-2.059,0.005c-0.209-1.222,2.022-8.459-0.357-7.361
			c0.176-1.663,3.451-1.807,3.327,0.685c2.582-3.715,6.344-1.265,2.724,0.431c-0.008-0.557-0.351-1.038-0.976-0.949
			C478.607,1397.911,479.342,1401.828,478.798,1404.18z"/>
	</g>
	<g id="Grupo_80">
		<path id="Caminho_300" fill="#531911" d="M445.162,1384.306h-0.365v-0.622h2.408c0.538-0.054,0.349,0.671,0.381,0.987h-0.668
			c-0.014-0.104,0.059-0.379-0.123-0.364h-0.898v1.044h1.29v0.622h-1.29c0.053,0.11-0.129,1.113,0.123,1.072h0.92
			c0.183,0.014,0.109-0.261,0.124-0.365h0.669c-0.035,0.318,0.157,1.046-0.382,0.988h-1.807c-0.271,0-0.382-0.111-0.382-0.382
			V1384.306z"/>
		<path id="Caminho_301" fill="#531911" d="M450.018,1386.602c0.013,0.198,1.495,0.925,1.537,0c0-0.679-1.874-0.623-1.874-1.864
			c-0.103-1.399,2.805-1.58,2.514,0.034h-0.662c0.175-0.638-1.143-0.629-1.111-0.062c0,0.679,1.875,0.544,1.875,1.853
			c0.063,1.535-2.348,1.287-2.694,0.556L450.018,1386.602z"/>
		<path id="Caminho_302" fill="#531911" d="M456.265,1383.617c0.762-0.034,1.737,0.411,1.51,1.336h-0.669
			c0.103-0.459-0.34-0.651-0.823-0.651c-2.741,0.416-0.54,4.164,1.229,2.222l0.387,0.528
			C455.141,1389.757,452.136,1384.137,456.265,1383.617z"/>
		<path id="Caminho_303" fill="#531911" d="M460.182,1384.306h-0.364v-0.622h1.784c1.398-0.148,1.598,1.993,0.578,2.25v0.011
			c0.35,0.122,0.428,1.236,0.938,1.101v0.622c-1.041,0.179-1.04-0.617-1.454-1.302c-0.097-0.269-0.515-0.167-0.746-0.186v1.487
			h-0.735V1384.306L460.182,1384.306z M461.501,1385.553c0.774,0.067,0.784-1.309,0.011-1.247h-0.595v1.247H461.501z"/>
		<path id="Caminho_304" fill="#531911" d="M464.96,1387.045h0.398v-2.739h-0.398v-0.623h1.492v0.623h-0.399v2.739h0.399v0.623
			h-1.492V1387.045z"/>
		<path id="Caminho_305" fill="#531911" d="M469.702,1384.306c-0.324,0.049-0.847-0.194-0.734,0.365h-0.646
			c0.048-0.305-0.182-1.054,0.359-0.988h2.778c0.538-0.066,0.314,0.685,0.359,0.988h-0.646c0.113-0.56-0.414-0.316-0.735-0.365
			v3.362h-0.735L469.702,1384.306L469.702,1384.306z"/>
		<path id="Caminho_306" fill="#531911" d="M475.597,1383.617c2.71-0.064,2.66,4.182,0,4.119
			C472.937,1387.797,472.886,1383.551,475.597,1383.617z M475.597,1387.051c1.657,0.045,1.708-2.797,0-2.75
			C473.888,1384.254,473.939,1387.096,475.597,1387.051L475.597,1387.051z M475.736,1382.657h0.685l-0.589,0.764h-0.522
			L475.736,1382.657z"/>
		<path id="Caminho_307" fill="#531911" d="M479.952,1384.306h-0.364v-0.622h1.785c1.398-0.148,1.597,1.993,0.578,2.25v0.011
			c0.349,0.122,0.427,1.236,0.937,1.101v0.622c-1.04,0.179-1.04-0.617-1.453-1.302c-0.098-0.269-0.515-0.167-0.747-0.186v1.487
			h-0.735V1384.306L479.952,1384.306z M481.272,1385.553c0.774,0.068,0.784-1.309,0.012-1.247h-0.596v1.247H481.272z"/>
		<path id="Caminho_308" fill="#531911" d="M484.73,1387.045h0.398v-2.739h-0.398v-0.623h1.492v0.623h-0.397v2.739h0.397v0.623
			h-1.492V1387.045z"/>
		<path id="Caminho_309" fill="#531911" d="M490.235,1383.617c2.711-0.064,2.66,4.182,0,4.119
			C487.575,1387.797,487.524,1383.551,490.235,1383.617z M490.235,1387.051c1.659,0.045,1.709-2.797,0-2.75
			C488.527,1384.254,488.577,1387.096,490.235,1387.051L490.235,1387.051z"/>
	</g>
	<g id="Grupo_81">
		<path id="Caminho_310" fill="#531911" d="M425.23,1393.269c-0.004-0.306-0.016-0.608-0.037-0.909
			c-0.021-0.327-0.051-0.653-0.09-0.976c-1.181-9.775-10.064-16.743-19.84-15.563c-8.851,1.07-15.552,8.512-15.688,17.426
			c-0.001,0.096-0.002,0.191-0.002,0.285c0,0.223,0.004,0.443,0.012,0.662c0.036,0.991,0.154,1.977,0.354,2.948
			c0.037,0.181,0.078,0.363,0.121,0.543c0.068,0.285,0.143,0.57,0.226,0.85c0.038,0.136,0.08,0.271,0.122,0.404
			c0.417,1.314,0.987,2.576,1.698,3.759c0.028,0.047,0.055,0.093,0.083,0.138c0.272,0.444,0.563,0.876,0.874,1.293
			c0.156,0.212,0.317,0.42,0.482,0.624c1.074,1.324,2.331,2.489,3.733,3.459c0.425,0.294,0.862,0.569,1.313,0.826
			c0.249,0.142,0.502,0.277,0.759,0.408c0.171,0.086,0.344,0.171,0.518,0.25c1.377,0.645,2.829,1.107,4.325,1.38h0
			c0.479,0.086,0.966,0.153,1.458,0.202c0.081,0.009,0.161,0.017,0.243,0.022c0.499,0.042,1,0.063,1.509,0.063
			c0.583,0,1.16-0.027,1.729-0.082c1.505-0.146,2.986-0.481,4.406-1.002c0.541-0.197,1.069-0.42,1.584-0.669
			c0.001,0,0.003,0,0.006-0.001c0.827-0.399,1.624-0.862,2.38-1.384c0.491-0.338,0.966-0.7,1.42-1.088
			c0.365-0.309,0.717-0.633,1.057-0.971c0.445-0.443,0.867-0.909,1.263-1.396c1.187-1.461,2.136-3.101,2.81-4.857
			c0.119-0.312,0.232-0.63,0.333-0.953c0.072-0.222,0.139-0.447,0.202-0.675c0.052-0.192,0.102-0.384,0.149-0.578
			c0.274-1.144,0.434-2.313,0.477-3.489c0.006-0.14,0.009-0.281,0.012-0.423c0.001-0.087,0.002-0.173,0.002-0.261
			C425.232,1393.446,425.231,1393.357,425.23,1393.269z"/>
		<path id="Caminho_311" fill="#72B8E1" d="M423.777,1392.597c-0.871,0.158-1.73,0.348-2.579,0.567
			c-0.21-7.619-6.558-13.625-14.177-13.415c-7.62,0.212-13.625,6.559-13.415,14.179c0.028,0.99,0.162,1.976,0.401,2.938
			c-0.887,0.014-1.767,0.058-2.64,0.131c-0.214-0.996-0.334-2.009-0.361-3.027c-0.004-0.146-0.005-0.291-0.005-0.438
			c0-0.146,0.001-0.291,0.005-0.436c0.015-0.573,0.06-1.145,0.135-1.714c1.188-8.98,9.431-15.297,18.412-14.109
			c7.353,0.973,13.138,6.758,14.11,14.109C423.717,1391.785,423.754,1392.188,423.777,1392.597z"/>
		<path id="Caminho_312" fill="#84C0E6" d="M418.001,1394.131c0.012-0.198,0.017-0.398,0.017-0.599
			c-0.003-5.862-4.759-10.613-10.622-10.609c-5.862,0.003-10.613,4.758-10.609,10.621c0.001,1.159,0.191,2.313,0.564,3.41
			c-0.895-0.062-1.798-0.092-2.711-0.092c-0.211,0-0.422,0-0.632,0.005c-1.841-7.397,2.663-14.887,10.06-16.727
			c7.397-1.841,14.886,2.663,16.727,10.061c0.242,0.97,0.377,1.964,0.405,2.963C420.114,1393.441,419.048,1393.763,418.001,1394.131
			z"/>
		<path id="Caminho_313" fill="#93C9E9" d="M418.019,1393.533c0,0.2-0.005,0.4-0.017,0.599c-1.028,0.359-2.037,0.761-3.024,1.203
			c0.994-4.183-1.591-8.379-5.773-9.374c-4.183-0.994-8.38,1.59-9.374,5.773c-0.45,1.89-0.176,3.88,0.767,5.579
			c-1.068-0.164-2.149-0.284-3.246-0.358c-1.889-5.551,1.079-11.582,6.63-13.472s11.583,1.079,13.471,6.63
			C417.827,1391.214,418.019,1392.37,418.019,1393.533z"/>
		<path id="Caminho_314" fill="#D98714" d="M415.187,1393.533c0.001,0.606-0.07,1.212-0.21,1.802
			c-2.401,1.074-4.688,2.388-6.825,3.921c-2.447-0.898-4.979-1.551-7.556-1.942c-2.088-3.759-0.733-8.498,3.025-10.586
			c3.759-2.088,8.498-0.733,10.585,3.025C414.85,1390.909,415.187,1392.21,415.187,1393.533z"/>
		<path id="Caminho_315" fill="#531911" d="M425.23,1393.269c-0.004-0.306-0.016-0.608-0.037-0.909
			c-0.021-0.327-0.051-0.653-0.09-0.976c-1.181-9.775-10.064-16.743-19.84-15.563c-8.851,1.07-15.552,8.512-15.688,17.426
			c-0.001,0.096-0.002,0.191-0.002,0.285c0,0.223,0.004,0.443,0.012,0.662c0.036,0.991,0.154,1.977,0.354,2.948
			c0.037,0.181,0.078,0.363,0.121,0.543c0.068,0.285,0.143,0.57,0.226,0.85c0.038,0.136,0.08,0.271,0.122,0.404
			c0.417,1.314,0.987,2.576,1.698,3.759c0.028,0.047,0.055,0.093,0.083,0.138c0.272,0.444,0.563,0.876,0.874,1.293
			c0.156,0.212,0.317,0.42,0.482,0.624c1.074,1.324,2.331,2.489,3.733,3.459c0.425,0.294,0.862,0.569,1.313,0.826
			c0.249,0.142,0.502,0.277,0.759,0.408c0.171,0.086,0.344,0.171,0.518,0.25c1.377,0.645,2.829,1.107,4.325,1.38h0
			c0.479,0.086,0.966,0.153,1.458,0.202c0.081,0.009,0.161,0.017,0.243,0.022c0.499,0.042,1,0.063,1.509,0.063
			c0.583,0,1.16-0.027,1.729-0.082c1.505-0.146,2.986-0.481,4.406-1.002c0.541-0.197,1.069-0.42,1.584-0.669
			c0.001,0,0.003,0,0.006-0.001c0.827-0.399,1.624-0.862,2.38-1.384c0.491-0.338,0.966-0.7,1.42-1.088
			c0.365-0.309,0.717-0.633,1.057-0.971c0.445-0.443,0.867-0.909,1.263-1.396c1.187-1.461,2.136-3.101,2.81-4.857
			c0.119-0.312,0.232-0.63,0.333-0.953c0.072-0.222,0.139-0.447,0.202-0.675c0.052-0.192,0.102-0.384,0.149-0.578
			c0.274-1.144,0.434-2.313,0.477-3.489c0.006-0.14,0.009-0.281,0.012-0.423c0.001-0.087,0.002-0.173,0.002-0.261
			C425.232,1393.446,425.231,1393.357,425.23,1393.269z M423.389,1397.212c-0.089,0.393-0.194,0.779-0.311,1.162
			c-0.027,0.086-0.055,0.172-0.083,0.257c-1.083,0.267-2.146,0.583-3.185,0.95c-1.92,0.68-3.774,1.532-5.537,2.551
			c0.493,0.286,0.979,0.582,1.458,0.887c0.917-0.497,1.859-0.95,2.827-1.358c1.228-0.518,2.485-0.956,3.768-1.315
			c-0.561,1.225-1.269,2.376-2.111,3.427c-0.417,0.522-0.866,1.018-1.345,1.484c-0.343,0.338-0.702,0.659-1.075,0.965
			c-0.331,0.271-0.672,0.53-1.024,0.776c-0.7,0.487-1.437,0.92-2.205,1.292c-0.25,0.124-0.506,0.24-0.765,0.349
			c-0.564,0.241-1.144,0.449-1.733,0.622c-0.999,0.296-2.023,0.495-3.06,0.596c-0.529,0.052-1.064,0.078-1.606,0.078
			c-0.121,0-0.242-0.001-0.362-0.004c-0.426-0.009-0.848-0.034-1.265-0.077c-0.191-0.019-0.381-0.04-0.57-0.064
			c-1.55-0.207-3.062-0.637-4.489-1.275c-0.265-0.117-0.527-0.242-0.783-0.376c-0.172-0.088-0.342-0.179-0.51-0.271
			c-1.739-0.973-3.288-2.251-4.571-3.775c-0.094-0.109-0.186-0.223-0.276-0.334c-0.294-0.368-0.571-0.749-0.832-1.142
			c-0.141-0.21-0.277-0.425-0.408-0.645c-0.675-1.122-1.213-2.322-1.601-3.573c-0.004-0.015-0.009-0.028-0.013-0.043
			c-0.118-0.382-0.222-0.77-0.31-1.161l-0.044-0.195c-0.214-0.996-0.334-2.01-0.361-3.028c-0.004-0.146-0.005-0.291-0.005-0.437
			s0.001-0.291,0.005-0.435c0.015-0.574,0.06-1.146,0.135-1.714c1.188-8.98,9.432-15.298,18.412-14.11
			c7.353,0.973,13.139,6.758,14.111,14.11c0.053,0.4,0.09,0.804,0.113,1.213c-0.871,0.158-1.73,0.349-2.579,0.568
			c-1.084,0.275-2.15,0.599-3.197,0.966c-1.028,0.36-2.037,0.762-3.024,1.204c-2.401,1.074-4.687,2.388-6.825,3.921
			c0.537,0.197,1.067,0.406,1.592,0.627c2.505-1.708,5.207-3.104,8.047-4.162c1.098-0.408,2.221-0.767,3.367-1.074
			c0.867-0.233,1.747-0.436,2.637-0.605C423.764,1395.11,423.628,1396.171,423.389,1397.212z"/>
		<path id="Caminho_316" fill="#A1B537" d="M417.796,1406.221c-0.331,0.271-0.672,0.53-1.024,0.776
			c-0.7,0.487-1.437,0.92-2.204,1.292c-0.25,0.124-0.506,0.24-0.766,0.349c-0.909-0.639-1.85-1.23-2.817-1.773
			c-0.167-0.095-0.335-0.187-0.503-0.276c-0.471-0.256-0.949-0.499-1.435-0.73c-1.444-0.69-2.937-1.277-4.466-1.753
			c-0.519-0.161-1.042-0.309-1.57-0.445c-1.944-0.502-3.929-0.825-5.932-0.969c-0.805-0.06-1.618-0.089-2.438-0.088
			c-0.3,0-0.599,0.004-0.896,0.011c-0.142-0.21-0.277-0.425-0.408-0.644c-0.675-1.122-1.213-2.322-1.601-3.574
			c0.894-0.068,1.797-0.104,2.707-0.108c0.065-0.002,0.131-0.002,0.197-0.002c1.126,0,2.241,0.049,3.343,0.146
			c2.998,0.264,5.953,0.886,8.802,1.852c0.534,0.181,1.063,0.373,1.586,0.578c0.232,0.091,0.462,0.185,0.691,0.278
			c1.197,0.496,2.368,1.053,3.508,1.669c0.105,0.057,0.21,0.113,0.314,0.172c0.49,0.271,0.974,0.553,1.45,0.845
			c0.428,0.262,0.851,0.532,1.268,0.813C416.352,1405.138,417.084,1405.666,417.796,1406.221z"/>
		<path id="Caminho_317" fill="#A1B537" d="M412.068,1409.261c-0.998,0.296-2.023,0.494-3.06,0.595
			c-0.529,0.052-1.065,0.078-1.606,0.078c-0.121,0-0.241-0.001-0.361-0.004c-0.426-0.01-0.848-0.034-1.266-0.077
			c-0.191-0.019-0.381-0.039-0.57-0.064c-1.549-0.207-3.062-0.637-4.489-1.275c-0.265-0.117-0.527-0.243-0.784-0.376
			c-0.172-0.089-0.341-0.179-0.51-0.271c-1.739-0.973-3.287-2.252-4.57-3.775c1.337,0.008,2.672,0.1,3.998,0.274
			c1.013,0.133,2.01,0.313,2.99,0.539c0.526,0.121,1.048,0.256,1.564,0.402c1.523,0.434,3.011,0.981,4.453,1.637
			c0.243,0.111,0.484,0.225,0.723,0.341c0.237,0.114,0.473,0.231,0.707,0.356C410.241,1408.131,411.17,1408.673,412.068,1409.261z"
			/>
		<path id="Caminho_318" fill="#1F492A" d="M413.802,1408.638c-0.564,0.241-1.144,0.449-1.733,0.622
			c-0.899-0.587-1.827-1.129-2.783-1.62c-0.234-0.123-0.469-0.242-0.707-0.355c-0.239-0.117-0.48-0.23-0.723-0.341
			c-1.441-0.656-2.93-1.204-4.453-1.638c-0.516-0.146-1.039-0.281-1.564-0.402c-0.981-0.225-1.978-0.404-2.99-0.539
			c-1.326-0.175-2.661-0.267-3.998-0.274c-0.094-0.109-0.186-0.223-0.276-0.334c-0.294-0.368-0.571-0.749-0.832-1.142
			c0.297-0.008,0.597-0.012,0.896-0.012c0.82,0,1.633,0.029,2.438,0.088c2.002,0.144,3.988,0.468,5.931,0.97
			c0.528,0.136,1.052,0.284,1.57,0.445c1.529,0.476,3.022,1.063,4.466,1.753c0.485,0.231,0.964,0.474,1.435,0.73
			c0.169,0.089,0.336,0.181,0.503,0.275C411.952,1407.408,412.894,1408,413.802,1408.638z"/>
		<path id="Caminho_319" fill="#1F492A" d="M418.871,1405.255c-0.344,0.339-0.702,0.66-1.075,0.966
			c-0.712-0.554-1.444-1.082-2.195-1.583c-0.417-0.281-0.839-0.552-1.268-0.813c-0.476-0.293-0.959-0.575-1.45-0.846
			c-0.104-0.058-0.208-0.115-0.314-0.172c-1.14-0.617-2.311-1.173-3.508-1.669c-0.229-0.095-0.459-0.187-0.691-0.278
			c-0.522-0.203-1.051-0.396-1.586-0.578c-2.85-0.966-5.804-1.588-8.802-1.851c-1.101-0.097-2.215-0.145-3.342-0.146
			c-0.066,0-0.132,0-0.197,0c-0.911,0.005-1.814,0.041-2.707,0.109c-0.005-0.014-0.009-0.028-0.014-0.043
			c-0.117-0.381-0.221-0.768-0.309-1.16l-0.044-0.195c0.872-0.072,1.751-0.116,2.64-0.13c0.21-0.004,0.421-0.006,0.632-0.006
			c0.913,0,1.815,0.031,2.711,0.094c1.095,0.073,2.176,0.192,3.246,0.357c2.577,0.392,5.109,1.044,7.556,1.943
			c0.537,0.197,1.067,0.405,1.592,0.627c0.422,0.176,0.843,0.359,1.259,0.553c0.99,0.455,1.958,0.95,2.903,1.487
			c0.123,0.067,0.245,0.138,0.366,0.209c0.493,0.286,0.979,0.582,1.458,0.887c0.341,0.22,0.678,0.443,1.012,0.674
			C417.471,1404.188,418.18,1404.709,418.871,1405.255z"/>
		<path id="Caminho_320" fill="#822722" d="M423.796,1394.042c-0.033,1.068-0.168,2.13-0.407,3.171
			c-0.089,0.393-0.194,0.779-0.311,1.162c-0.027,0.086-0.055,0.172-0.083,0.257c-1.083,0.267-2.146,0.583-3.185,0.95
			c-1.92,0.68-3.774,1.532-5.537,2.551c-0.121-0.071-0.243-0.141-0.366-0.21c-0.943-0.535-1.912-1.031-2.903-1.486
			c-0.416-0.193-0.835-0.378-1.259-0.554c2.505-1.706,5.207-3.104,8.047-4.161c1.099-0.408,2.221-0.767,3.367-1.074
			C422.026,1394.414,422.905,1394.211,423.796,1394.042z"/>
		<path id="Caminho_321" fill="#9F3D2F" d="M422.326,1400.345c-0.561,1.225-1.269,2.376-2.11,3.427
			c-0.417,0.522-0.866,1.018-1.345,1.484c-0.689-0.545-1.399-1.066-2.127-1.564c-0.334-0.229-0.671-0.453-1.012-0.673
			c0.917-0.497,1.859-0.95,2.827-1.358C419.786,1401.143,421.044,1400.705,422.326,1400.345z"/>
	</g>
</g>
</svg>
